<svg xmlns="http://www.w3.org/2000/svg" xmlns:xlink="http://www.w3.org/1999/xlink" width="180" zoomAndPan="magnify" viewBox="0 0 135 135.000003" height="180" preserveAspectRatio="xMidYMid meet" version="1.0"><defs><clipPath id="61e80a84d4"><path d="M 0.496094 0 L 134.503906 0 L 134.503906 134.007812 L 0.496094 134.007812 Z M 0.496094 0 " clip-rule="nonzero"/></clipPath><clipPath id="bd965a5ef9"><path d="M 69.550781 32.839844 L 134.496094 32.839844 L 134.496094 107.167969 L 69.550781 107.167969 Z M 69.550781 32.839844 " clip-rule="nonzero"/></clipPath><clipPath id="a7cd680453"><path d="M 134.496094 69.949219 L 69.550781 107.058594 L 69.550781 32.839844 Z M 134.496094 69.949219 " clip-rule="nonzero"/></clipPath><clipPath id="e96d4f0a11"><path d="M 0.550781 0.839844 L 65.496094 0.839844 L 65.496094 75.167969 L 0.550781 75.167969 Z M 0.550781 0.839844 " clip-rule="nonzero"/></clipPath><clipPath id="239189448f"><path d="M 65.496094 37.949219 L 0.550781 75.058594 L 0.550781 0.839844 Z M 65.496094 37.949219 " clip-rule="nonzero"/></clipPath><clipPath id="a304c86c71"><rect x="0" width="66" y="0" height="76"/></clipPath></defs><g clip-path="url(#61e80a84d4)"><path fill="#ffffff" d="M 0.496094 0 L 134.503906 0 L 134.503906 134.007812 L 0.496094 134.007812 Z M 0.496094 0 " fill-opacity="1" fill-rule="nonzero"/><path fill="#1a1a1a" d="M 0.496094 0 L 134.503906 0 L 134.503906 134.007812 L 0.496094 134.007812 Z M 0.496094 0 " fill-opacity="1" fill-rule="nonzero"/></g><path stroke-linecap="butt" transform="matrix(0.744485, 0, 0, 0.744485, 1.259176, 60.645799)" fill="none" stroke-linejoin="miter" d="M 18.750638 12.501692 L 146.051257 12.501692 " stroke="#e63946" stroke-width="25" stroke-opacity="1" stroke-miterlimit="4"/><path stroke-linecap="round" transform="matrix(0.744485, 0, 0, 0.744485, 1.259176, 60.645799)" fill="none" stroke-linejoin="round" d="M 12.501564 -24.998 L 12.501564 50.001384 " stroke="#e63946" stroke-width="25" stroke-opacity="1" stroke-miterlimit="4"/><g clip-path="url(#bd965a5ef9)"><g clip-path="url(#a7cd680453)"><g transform="matrix(1, 0, 0, 1, 69, 32)"><g clip-path="url(#a304c86c71)"><g clip-path="url(#e96d4f0a11)"><g clip-path="url(#239189448f)"><path fill="#e63946" d="M 65.496094 0.839844 L 65.496094 75.167969 L 0.550781 75.167969 L 0.550781 0.839844 Z M 65.496094 0.839844 " fill-opacity="1" fill-rule="nonzero"/></g></g></g></g></g></g></svg>