<svg xmlns="http://www.w3.org/2000/svg" xmlns:xlink="http://www.w3.org/1999/xlink" width="400" zoomAndPan="magnify" viewBox="0 0 300 83.04" height="100" preserveAspectRatio="xMidYMid meet" version="1.0"><defs><g/><clipPath id="7a596240ef"><path d="M 3 0 L 298.285156 0 L 298.285156 74 L 3 74 Z M 3 0 " clip-rule="nonzero"/></clipPath><clipPath id="e8408135f9"><path d="M 0.375 37 L 6 37 L 6 57 L 0.375 57 Z M 0.375 37 " clip-rule="nonzero"/></clipPath><clipPath id="7ec7a3b852"><path d="M 277.003906 37.644531 L 293.542969 37.644531 L 293.542969 56.574219 L 277.003906 56.574219 Z M 277.003906 37.644531 " clip-rule="nonzero"/></clipPath><clipPath id="437336a4c5"><path d="M 293.542969 47.09375 L 277.003906 56.546875 L 277.003906 37.644531 Z M 293.542969 47.09375 " clip-rule="nonzero"/></clipPath><clipPath id="1426915160"><path d="M 0.00390625 0.644531 L 16.542969 0.644531 L 16.542969 19.574219 L 0.00390625 19.574219 Z M 0.00390625 0.644531 " clip-rule="nonzero"/></clipPath><clipPath id="dc5a857218"><path d="M 16.542969 10.09375 L 0.00390625 19.546875 L 0.00390625 0.644531 Z M 16.542969 10.09375 " clip-rule="nonzero"/></clipPath><clipPath id="c32c677605"><rect x="0" width="17" y="0" height="20"/></clipPath><clipPath id="f779c276e8"><path d="M 102 46 L 199 46 L 199 73.785156 L 102 73.785156 Z M 102 46 " clip-rule="nonzero"/></clipPath><clipPath id="e9ad1b3822"><rect x="0" width="97" y="0" height="28"/></clipPath><clipPath id="76df2c9dd9"><path d="M 7 0 L 295.285156 0 L 295.285156 43 L 7 43 Z M 7 0 " clip-rule="nonzero"/></clipPath><clipPath id="b471db77b4"><rect x="0" width="289" y="0" height="43"/></clipPath><clipPath id="ec502c8bf4"><rect x="0" width="296" y="0" height="74"/></clipPath></defs><g clip-path="url(#7a596240ef)"><g transform="matrix(1, 0, 0, 1, 3, 0.000000000000003817)"><g clip-path="url(#ec502c8bf4)"><path stroke-linecap="butt" transform="matrix(4.642833, 0, 0, 4.642833, 0.402557, 44.789365)" fill="none" stroke-linejoin="miter" d="M 0.749597 0.499697 L 60.390414 0.499697 " stroke="#ffffff" stroke-width="1" stroke-opacity="1" stroke-miterlimit="4"/><g clip-path="url(#e8408135f9)"><path stroke-linecap="round" transform="matrix(4.642833, 0, 0, 4.642833, 0.402557, 44.789365)" fill="none" stroke-linejoin="round" d="M 0.499716 -0.99959 L 0.499716 1.999825 " stroke="#ffffff" stroke-width="1" stroke-opacity="1" stroke-miterlimit="4"/></g><g clip-path="url(#7ec7a3b852)"><g clip-path="url(#437336a4c5)"><g transform="matrix(1, 0, 0, 1, 277, 37)"><g clip-path="url(#c32c677605)"><g clip-path="url(#1426915160)"><g clip-path="url(#dc5a857218)"><path fill="#e63946" d="M 16.542969 0.644531 L 16.542969 19.574219 L 0.00390625 19.574219 L 0.00390625 0.644531 Z M 16.542969 0.644531 " fill-opacity="1" fill-rule="nonzero"/></g></g></g></g></g></g><g clip-path="url(#f779c276e8)"><g transform="matrix(1, 0, 0, 1, 102, 46)"><g clip-path="url(#e9ad1b3822)"><g fill="#ffffff" fill-opacity="1"><g transform="translate(1.155211, 21.254487)"><g><path d="M 5.5 4.53125 C 3.8125 4.53125 2.578125 4.25 1.796875 3.6875 C 1.023438 3.125 0.640625 2.378906 0.640625 1.453125 C 0.640625 0.847656 0.820312 0.367188 1.1875 0.015625 C 1.550781 -0.335938 2.078125 -0.59375 2.765625 -0.75 L 2.765625 -0.953125 C 2.429688 -1.140625 2.179688 -1.359375 2.015625 -1.609375 C 1.859375 -1.859375 1.78125 -2.15625 1.78125 -2.5 C 1.78125 -2.914062 1.910156 -3.253906 2.171875 -3.515625 C 2.429688 -3.773438 2.820312 -3.972656 3.34375 -4.109375 L 3.34375 -4.3125 C 2.175781 -4.914062 1.59375 -5.910156 1.59375 -7.296875 C 1.59375 -7.992188 1.75 -8.613281 2.0625 -9.15625 C 2.382812 -9.695312 2.835938 -10.117188 3.421875 -10.421875 C 4.015625 -10.722656 4.695312 -10.875 5.46875 -10.875 C 6.363281 -10.875 7.113281 -10.675781 7.71875 -10.28125 C 7.945312 -10.53125 8.113281 -10.796875 8.21875 -11.078125 C 8.332031 -11.367188 8.410156 -11.695312 8.453125 -12.0625 L 8.65625 -12.1875 L 9.9375 -11.875 C 9.875 -11.332031 9.710938 -10.875 9.453125 -10.5 C 9.191406 -10.125 8.820312 -9.816406 8.34375 -9.578125 L 8.34375 -9.375 C 8.6875 -9.101562 8.941406 -8.785156 9.109375 -8.421875 C 9.273438 -8.054688 9.359375 -7.632812 9.359375 -7.15625 C 9.359375 -6.476562 9.195312 -5.867188 8.875 -5.328125 C 8.550781 -4.796875 8.09375 -4.378906 7.5 -4.078125 C 6.914062 -3.773438 6.238281 -3.625 5.46875 -3.625 C 5.382812 -3.625 5.222656 -3.628906 4.984375 -3.640625 C 4.734375 -3.648438 4.546875 -3.65625 4.421875 -3.65625 C 4.085938 -3.65625 3.816406 -3.566406 3.609375 -3.390625 C 3.410156 -3.222656 3.3125 -3.003906 3.3125 -2.734375 C 3.3125 -2.390625 3.421875 -2.140625 3.640625 -1.984375 C 3.859375 -1.828125 4.21875 -1.738281 4.71875 -1.71875 L 7.234375 -1.640625 C 8.328125 -1.597656 9.132812 -1.34375 9.65625 -0.875 C 10.1875 -0.40625 10.453125 0.253906 10.453125 1.109375 C 10.453125 1.742188 10.28125 2.316406 9.9375 2.828125 C 9.59375 3.347656 9.050781 3.757812 8.3125 4.0625 C 7.570312 4.375 6.632812 4.53125 5.5 4.53125 Z M 5.46875 -4.96875 C 6.226562 -4.96875 6.8125 -5.164062 7.21875 -5.5625 C 7.632812 -5.957031 7.84375 -6.507812 7.84375 -7.21875 C 7.84375 -7.945312 7.632812 -8.507812 7.21875 -8.90625 C 6.8125 -9.3125 6.226562 -9.515625 5.46875 -9.515625 C 4.707031 -9.515625 4.128906 -9.316406 3.734375 -8.921875 C 3.335938 -8.523438 3.140625 -7.957031 3.140625 -7.21875 C 3.140625 -6.5 3.335938 -5.941406 3.734375 -5.546875 C 4.128906 -5.160156 4.707031 -4.96875 5.46875 -4.96875 Z M 5.5 3.171875 C 6.28125 3.171875 6.921875 3.082031 7.421875 2.90625 C 7.921875 2.738281 8.28125 2.507812 8.5 2.21875 C 8.71875 1.9375 8.828125 1.613281 8.828125 1.25 C 8.828125 0.9375 8.765625 0.679688 8.640625 0.484375 C 8.523438 0.296875 8.335938 0.148438 8.078125 0.046875 C 7.816406 -0.046875 7.457031 -0.101562 7 -0.125 L 4.609375 -0.234375 L 4.265625 -0.234375 C 2.929688 -0.222656 2.265625 0.289062 2.265625 1.3125 C 2.265625 2.550781 3.34375 3.171875 5.5 3.171875 Z M 5.5 3.171875 "/></g></g></g><g fill="#ffffff" fill-opacity="1"><g transform="translate(20.006291, 21.254487)"><g><path d="M 1.859375 0 L 1.859375 -10.671875 L 3.359375 -10.671875 L 3.359375 -9 L 3.5625 -8.953125 C 4.0625 -10.160156 4.992188 -10.765625 6.359375 -10.765625 C 7.085938 -10.765625 7.632812 -10.632812 8 -10.375 L 7.59375 -9.03125 L 7.40625 -9 C 7 -9.195312 6.554688 -9.296875 6.078125 -9.296875 C 5.234375 -9.296875 4.582031 -8.972656 4.125 -8.328125 C 3.664062 -7.691406 3.4375 -6.660156 3.4375 -5.234375 L 3.4375 0 Z M 1.859375 0 "/></g></g></g><g fill="#ffffff" fill-opacity="1"><g transform="translate(35.888597, 21.254487)"><g><path d="M 6.125 0.203125 C 5.113281 0.203125 4.234375 -0.0078125 3.484375 -0.4375 C 2.742188 -0.863281 2.171875 -1.488281 1.765625 -2.3125 C 1.367188 -3.144531 1.171875 -4.148438 1.171875 -5.328125 C 1.171875 -6.503906 1.367188 -7.507812 1.765625 -8.34375 C 2.171875 -9.175781 2.742188 -9.804688 3.484375 -10.234375 C 4.234375 -10.660156 5.113281 -10.875 6.125 -10.875 C 7.132812 -10.875 8.007812 -10.660156 8.75 -10.234375 C 9.5 -9.804688 10.070312 -9.175781 10.46875 -8.34375 C 10.875 -7.507812 11.078125 -6.503906 11.078125 -5.328125 C 11.078125 -4.148438 10.875 -3.144531 10.46875 -2.3125 C 10.070312 -1.488281 9.5 -0.863281 8.75 -0.4375 C 8.007812 -0.0078125 7.132812 0.203125 6.125 0.203125 Z M 6.125 -1.203125 C 7.1875 -1.203125 8 -1.535156 8.5625 -2.203125 C 9.125 -2.878906 9.40625 -3.921875 9.40625 -5.328125 C 9.40625 -6.742188 9.125 -7.785156 8.5625 -8.453125 C 8 -9.128906 7.1875 -9.46875 6.125 -9.46875 C 5.0625 -9.46875 4.242188 -9.128906 3.671875 -8.453125 C 3.109375 -7.773438 2.828125 -6.734375 2.828125 -5.328125 C 2.828125 -3.921875 3.109375 -2.878906 3.671875 -2.203125 C 4.242188 -1.535156 5.0625 -1.203125 6.125 -1.203125 Z M 6.125 -1.203125 "/></g></g></g><g fill="#ffffff" fill-opacity="1"><g transform="translate(56.054824, 21.254487)"><g><path d="M 5.265625 0.203125 C 4.066406 0.203125 3.171875 -0.113281 2.578125 -0.75 C 1.984375 -1.394531 1.6875 -2.332031 1.6875 -3.5625 L 1.6875 -10.671875 L 3.265625 -10.671875 L 3.265625 -3.59375 C 3.265625 -1.976562 4.023438 -1.171875 5.546875 -1.171875 C 6.515625 -1.171875 7.28125 -1.484375 7.84375 -2.109375 C 8.40625 -2.742188 8.6875 -3.769531 8.6875 -5.1875 L 8.6875 -10.671875 L 10.265625 -10.671875 L 10.265625 0 L 8.78125 0 L 8.78125 -1.671875 L 8.578125 -1.71875 C 8.203125 -1.070312 7.757812 -0.585938 7.25 -0.265625 C 6.738281 0.046875 6.078125 0.203125 5.265625 0.203125 Z M 5.265625 0.203125 "/></g></g></g><g fill="#ffffff" fill-opacity="1"><g transform="translate(76.095346, 21.254487)"><g><path d="M 1.859375 4.328125 L 1.859375 -10.671875 L 3.4375 -10.671875 L 3.4375 -9.078125 L 3.640625 -9.03125 C 4.429688 -10.257812 5.59375 -10.875 7.125 -10.875 C 8.019531 -10.875 8.796875 -10.671875 9.453125 -10.265625 C 10.117188 -9.859375 10.632812 -9.238281 11 -8.40625 C 11.375 -7.582031 11.5625 -6.554688 11.5625 -5.328125 C 11.5625 -4.109375 11.367188 -3.085938 10.984375 -2.265625 C 10.597656 -1.441406 10.0625 -0.820312 9.375 -0.40625 C 8.6875 0 7.898438 0.203125 7.015625 0.203125 C 6.296875 0.203125 5.65625 0.078125 5.09375 -0.171875 C 4.53125 -0.421875 4.046875 -0.832031 3.640625 -1.40625 L 3.4375 -1.375 L 3.4375 4.328125 Z M 6.671875 -1.203125 C 8.828125 -1.203125 9.90625 -2.578125 9.90625 -5.328125 C 9.90625 -8.085938 8.828125 -9.46875 6.671875 -9.46875 C 6.035156 -9.46875 5.472656 -9.320312 4.984375 -9.03125 C 4.503906 -8.738281 4.125 -8.285156 3.84375 -7.671875 C 3.570312 -7.054688 3.4375 -6.273438 3.4375 -5.328125 C 3.4375 -4.390625 3.570312 -3.613281 3.84375 -3 C 4.125 -2.382812 4.503906 -1.929688 4.984375 -1.640625 C 5.472656 -1.347656 6.035156 -1.203125 6.671875 -1.203125 Z M 6.671875 -1.203125 "/></g></g></g></g></g></g><g clip-path="url(#76df2c9dd9)"><g transform="matrix(1, 0, 0, 1, 7, 0.000000000000003817)"><g clip-path="url(#b471db77b4)"><g fill="#ffffff" fill-opacity="1"><g transform="translate(0.612182, 33.611424)"><g><path d="M 1.078125 -24.5 C 1.691406 -24.46875 2.519531 -24.441406 3.5625 -24.421875 C 4.601562 -24.398438 5.640625 -24.390625 6.671875 -24.390625 C 7.804688 -24.390625 8.894531 -24.398438 9.9375 -24.421875 C 10.988281 -24.441406 11.734375 -24.453125 12.171875 -24.453125 C 15.171875 -24.453125 17.414062 -23.941406 18.90625 -22.921875 C 20.394531 -21.910156 21.140625 -20.613281 21.140625 -19.03125 C 21.140625 -18.21875 20.875 -17.390625 20.34375 -16.546875 C 19.8125 -15.710938 19 -14.960938 17.90625 -14.296875 C 16.8125 -13.640625 15.410156 -13.1875 13.703125 -12.9375 L 13.703125 -12.875 C 15.960938 -12.726562 17.765625 -12.335938 19.109375 -11.703125 C 20.460938 -11.078125 21.4375 -10.320312 22.03125 -9.4375 C 22.632812 -8.5625 22.9375 -7.65625 22.9375 -6.71875 C 22.9375 -5.21875 22.535156 -3.96875 21.734375 -2.96875 C 20.941406 -1.976562 19.800781 -1.234375 18.3125 -0.734375 C 16.832031 -0.242188 15.050781 0 12.96875 0 C 12.414062 0 11.609375 -0.015625 10.546875 -0.046875 C 9.484375 -0.0859375 8.21875 -0.109375 6.75 -0.109375 C 5.664062 -0.109375 4.601562 -0.0976562 3.5625 -0.078125 C 2.519531 -0.0664062 1.691406 -0.0390625 1.078125 0 L 1.078125 -0.6875 C 1.785156 -0.738281 2.316406 -0.832031 2.671875 -0.96875 C 3.035156 -1.101562 3.28125 -1.378906 3.40625 -1.796875 C 3.53125 -2.210938 3.59375 -2.835938 3.59375 -3.671875 L 3.59375 -20.828125 C 3.59375 -21.679688 3.53125 -22.304688 3.40625 -22.703125 C 3.28125 -23.109375 3.035156 -23.382812 2.671875 -23.53125 C 2.316406 -23.6875 1.785156 -23.773438 1.078125 -23.796875 Z M 11.859375 -23.796875 C 11.035156 -23.796875 10.492188 -23.597656 10.234375 -23.203125 C 9.984375 -22.816406 9.859375 -22.023438 9.859375 -20.828125 L 9.859375 -3.671875 C 9.859375 -2.859375 9.921875 -2.242188 10.046875 -1.828125 C 10.171875 -1.410156 10.394531 -1.132812 10.71875 -1 C 11.039062 -0.863281 11.523438 -0.796875 12.171875 -0.796875 C 13.648438 -0.796875 14.726562 -1.316406 15.40625 -2.359375 C 16.09375 -3.410156 16.4375 -4.90625 16.4375 -6.84375 C 16.4375 -8.625 16.003906 -10 15.140625 -10.96875 C 14.273438 -11.9375 12.835938 -12.421875 10.828125 -12.421875 L 8.09375 -12.421875 C 8.09375 -12.421875 8.09375 -12.515625 8.09375 -12.703125 C 8.09375 -12.898438 8.09375 -13 8.09375 -13 L 11.0625 -13 C 12.0625 -13 12.828125 -13.257812 13.359375 -13.78125 C 13.890625 -14.300781 14.253906 -14.992188 14.453125 -15.859375 C 14.660156 -16.722656 14.765625 -17.648438 14.765625 -18.640625 C 14.765625 -20.347656 14.539062 -21.632812 14.09375 -22.5 C 13.644531 -23.363281 12.898438 -23.796875 11.859375 -23.796875 Z M 11.859375 -23.796875 "/></g></g></g><g fill="#ffffff" fill-opacity="1"><g transform="translate(37.663505, 33.611424)"><g><path d="M 13.25 -24.53125 L 21.625 -2.90625 C 21.96875 -2.09375 22.328125 -1.523438 22.703125 -1.203125 C 23.085938 -0.878906 23.429688 -0.707031 23.734375 -0.6875 L 23.734375 0 C 22.992188 -0.0390625 22.109375 -0.0664062 21.078125 -0.078125 C 20.054688 -0.0976562 19.015625 -0.109375 17.953125 -0.109375 C 16.847656 -0.109375 15.796875 -0.0976562 14.796875 -0.078125 C 13.804688 -0.0664062 13.015625 -0.0390625 12.421875 0 L 12.421875 -0.6875 C 13.597656 -0.738281 14.347656 -0.941406 14.671875 -1.296875 C 14.992188 -1.648438 14.921875 -2.414062 14.453125 -3.59375 L 8.71875 -19.296875 L 9.40625 -20.34375 L 4.359375 -7.296875 C 3.828125 -5.910156 3.503906 -4.789062 3.390625 -3.9375 C 3.273438 -3.082031 3.332031 -2.425781 3.5625 -1.96875 C 3.789062 -1.507812 4.148438 -1.1875 4.640625 -1 C 5.140625 -0.8125 5.738281 -0.707031 6.4375 -0.6875 L 6.4375 0 C 5.625 -0.0390625 4.878906 -0.0664062 4.203125 -0.078125 C 3.523438 -0.0976562 2.789062 -0.109375 2 -0.109375 C 1.539062 -0.109375 1.070312 -0.0976562 0.59375 -0.078125 C 0.125 -0.0664062 -0.28125 -0.0390625 -0.625 0 L -0.625 -0.6875 C -0.113281 -0.78125 0.394531 -1.101562 0.90625 -1.65625 C 1.425781 -2.207031 1.941406 -3.164062 2.453125 -4.53125 L 10.234375 -24.53125 C 10.703125 -24.476562 11.207031 -24.453125 11.75 -24.453125 C 12.289062 -24.453125 12.789062 -24.476562 13.25 -24.53125 Z M 15.046875 -9.96875 L 15.046875 -9.265625 L 4.734375 -9.265625 L 5.078125 -9.96875 Z M 15.046875 -9.96875 "/></g></g></g><g fill="#ffffff" fill-opacity="1"><g transform="translate(74.334295, 33.611424)"><g><path d="M 12.65625 -24.5 L 12.65625 -23.796875 C 11.875 -23.773438 11.28125 -23.6875 10.875 -23.53125 C 10.476562 -23.382812 10.207031 -23.109375 10.0625 -22.703125 C 9.925781 -22.304688 9.859375 -21.679688 9.859375 -20.828125 L 9.859375 -3.109375 C 9.859375 -2.441406 9.910156 -1.941406 10.015625 -1.609375 C 10.117188 -1.273438 10.304688 -1.054688 10.578125 -0.953125 C 10.859375 -0.847656 11.273438 -0.796875 11.828125 -0.796875 L 13.25 -0.796875 C 13.9375 -0.796875 14.625 -1.003906 15.3125 -1.421875 C 16.007812 -1.835938 16.65625 -2.421875 17.25 -3.171875 C 17.851562 -3.921875 18.375 -4.785156 18.8125 -5.765625 C 19.25 -6.742188 19.5625 -7.796875 19.75 -8.921875 L 20.546875 -8.921875 C 20.472656 -8.117188 20.4375 -7.082031 20.4375 -5.8125 C 20.4375 -5.238281 20.445312 -4.414062 20.46875 -3.34375 C 20.5 -2.269531 20.570312 -1.15625 20.6875 0 C 19.507812 -0.0390625 18.179688 -0.0664062 16.703125 -0.078125 C 15.234375 -0.0976562 13.921875 -0.109375 12.765625 -0.109375 C 12.160156 -0.109375 11.394531 -0.109375 10.46875 -0.109375 C 9.550781 -0.109375 8.550781 -0.0976562 7.46875 -0.078125 C 6.382812 -0.0664062 5.289062 -0.0546875 4.1875 -0.046875 C 3.082031 -0.0351562 2.046875 -0.0195312 1.078125 0 L 1.078125 -0.6875 C 1.785156 -0.738281 2.316406 -0.832031 2.671875 -0.96875 C 3.035156 -1.101562 3.28125 -1.378906 3.40625 -1.796875 C 3.53125 -2.210938 3.59375 -2.835938 3.59375 -3.671875 L 3.59375 -20.828125 C 3.59375 -21.679688 3.53125 -22.304688 3.40625 -22.703125 C 3.28125 -23.109375 3.035156 -23.382812 2.671875 -23.53125 C 2.316406 -23.6875 1.785156 -23.773438 1.078125 -23.796875 L 1.078125 -24.5 C 1.691406 -24.46875 2.519531 -24.441406 3.5625 -24.421875 C 4.601562 -24.398438 5.710938 -24.390625 6.890625 -24.390625 C 7.972656 -24.390625 9.03125 -24.398438 10.0625 -24.421875 C 11.101562 -24.441406 11.96875 -24.46875 12.65625 -24.5 Z M 12.65625 -24.5 "/></g></g></g><g fill="#ffffff" fill-opacity="1"><g transform="translate(109.552275, 33.611424)"><g><path d="M 20 -24.5 C 19.90625 -23.40625 19.835938 -22.351562 19.796875 -21.34375 C 19.765625 -20.332031 19.75 -19.5625 19.75 -19.03125 C 19.75 -18.5625 19.757812 -18.109375 19.78125 -17.671875 C 19.8125 -17.234375 19.835938 -16.878906 19.859375 -16.609375 L 19.0625 -16.609375 C 18.8125 -18.398438 18.398438 -19.816406 17.828125 -20.859375 C 17.265625 -21.898438 16.570312 -22.632812 15.75 -23.0625 C 14.9375 -23.488281 14.035156 -23.703125 13.046875 -23.703125 L 12.109375 -23.703125 C 11.484375 -23.703125 11.003906 -23.648438 10.671875 -23.546875 C 10.335938 -23.441406 10.117188 -23.226562 10.015625 -22.90625 C 9.910156 -22.582031 9.859375 -22.070312 9.859375 -21.375 L 9.859375 -3.109375 C 9.859375 -2.441406 9.910156 -1.941406 10.015625 -1.609375 C 10.117188 -1.273438 10.335938 -1.054688 10.671875 -0.953125 C 11.003906 -0.847656 11.484375 -0.796875 12.109375 -0.796875 L 13.53125 -0.796875 C 14.425781 -0.796875 15.28125 -1.03125 16.09375 -1.5 C 16.914062 -1.976562 17.648438 -2.785156 18.296875 -3.921875 C 18.941406 -5.066406 19.425781 -6.617188 19.75 -8.578125 L 20.546875 -8.578125 C 20.472656 -7.796875 20.4375 -6.78125 20.4375 -5.53125 C 20.4375 -4.976562 20.445312 -4.191406 20.46875 -3.171875 C 20.5 -2.160156 20.570312 -1.101562 20.6875 0 C 19.507812 -0.0390625 18.179688 -0.0664062 16.703125 -0.078125 C 15.234375 -0.0976562 13.921875 -0.109375 12.765625 -0.109375 C 12.160156 -0.109375 11.394531 -0.109375 10.46875 -0.109375 C 9.550781 -0.109375 8.550781 -0.0976562 7.46875 -0.078125 C 6.382812 -0.0664062 5.289062 -0.0546875 4.1875 -0.046875 C 3.082031 -0.0351562 2.046875 -0.0195312 1.078125 0 L 1.078125 -0.6875 C 1.785156 -0.738281 2.316406 -0.832031 2.671875 -0.96875 C 3.035156 -1.101562 3.28125 -1.378906 3.40625 -1.796875 C 3.53125 -2.210938 3.59375 -2.835938 3.59375 -3.671875 L 3.59375 -20.828125 C 3.59375 -21.679688 3.53125 -22.304688 3.40625 -22.703125 C 3.28125 -23.109375 3.035156 -23.382812 2.671875 -23.53125 C 2.316406 -23.6875 1.785156 -23.773438 1.078125 -23.796875 L 1.078125 -24.5 C 2.066406 -24.46875 3.109375 -24.445312 4.203125 -24.4375 C 5.296875 -24.425781 6.378906 -24.414062 7.453125 -24.40625 C 8.523438 -24.394531 9.523438 -24.390625 10.453125 -24.390625 C 11.390625 -24.390625 12.160156 -24.390625 12.765625 -24.390625 C 13.828125 -24.390625 15.03125 -24.394531 16.375 -24.40625 C 17.726562 -24.414062 18.9375 -24.445312 20 -24.5 Z M 14.765625 -12.65625 C 14.765625 -12.65625 14.765625 -12.539062 14.765625 -12.3125 C 14.765625 -12.082031 14.765625 -11.96875 14.765625 -11.96875 L 8.828125 -11.96875 C 8.828125 -11.96875 8.828125 -12.082031 8.828125 -12.3125 C 8.828125 -12.539062 8.828125 -12.65625 8.828125 -12.65625 Z M 15.78125 -17.234375 C 15.6875 -15.910156 15.644531 -14.90625 15.65625 -14.21875 C 15.664062 -13.53125 15.671875 -12.894531 15.671875 -12.3125 C 15.671875 -11.738281 15.679688 -11.101562 15.703125 -10.40625 C 15.722656 -9.71875 15.78125 -8.71875 15.875 -7.40625 L 15.078125 -7.40625 C 14.960938 -8.238281 14.71875 -9 14.34375 -9.6875 C 13.976562 -10.375 13.484375 -10.925781 12.859375 -11.34375 C 12.242188 -11.757812 11.484375 -11.96875 10.578125 -11.96875 L 10.578125 -12.65625 C 11.253906 -12.65625 11.84375 -12.800781 12.34375 -13.09375 C 12.851562 -13.382812 13.285156 -13.757812 13.640625 -14.21875 C 14.003906 -14.675781 14.300781 -15.171875 14.53125 -15.703125 C 14.757812 -16.234375 14.910156 -16.742188 14.984375 -17.234375 Z M 15.78125 -17.234375 "/></g></g></g><g fill="#ffffff" fill-opacity="1"><g transform="translate(145.600459, 33.611424)"><g><path d="M 10.140625 -24.9375 C 11.566406 -24.9375 12.671875 -24.789062 13.453125 -24.5 C 14.242188 -24.21875 14.914062 -23.914062 15.46875 -23.59375 C 15.738281 -23.425781 15.957031 -23.300781 16.125 -23.21875 C 16.300781 -23.144531 16.472656 -23.109375 16.640625 -23.109375 C 16.867188 -23.109375 17.035156 -23.234375 17.140625 -23.484375 C 17.242188 -23.742188 17.332031 -24.125 17.40625 -24.625 L 18.203125 -24.625 C 18.171875 -24.164062 18.140625 -23.625 18.109375 -23 C 18.078125 -22.382812 18.050781 -21.5625 18.03125 -20.53125 C 18.019531 -19.5 18.015625 -18.144531 18.015625 -16.46875 L 17.234375 -16.46875 C 17.140625 -17.707031 16.847656 -18.90625 16.359375 -20.0625 C 15.878906 -21.21875 15.21875 -22.175781 14.375 -22.9375 C 13.53125 -23.695312 12.5 -24.078125 11.28125 -24.078125 C 10.21875 -24.078125 9.335938 -23.78125 8.640625 -23.1875 C 7.953125 -22.601562 7.609375 -21.769531 7.609375 -20.6875 C 7.609375 -19.8125 7.828125 -19.054688 8.265625 -18.421875 C 8.703125 -17.785156 9.363281 -17.144531 10.25 -16.5 C 11.144531 -15.851562 12.269531 -15.054688 13.625 -14.109375 C 14.707031 -13.398438 15.675781 -12.6875 16.53125 -11.96875 C 17.382812 -11.25 18.070312 -10.441406 18.59375 -9.546875 C 19.113281 -8.648438 19.375 -7.566406 19.375 -6.296875 C 19.375 -4.773438 18.957031 -3.507812 18.125 -2.5 C 17.289062 -1.5 16.191406 -0.75 14.828125 -0.25 C 13.472656 0.238281 11.988281 0.484375 10.375 0.484375 C 8.875 0.484375 7.679688 0.34375 6.796875 0.0625 C 5.910156 -0.207031 5.15625 -0.492188 4.53125 -0.796875 C 4.019531 -1.117188 3.628906 -1.28125 3.359375 -1.28125 C 3.128906 -1.28125 2.960938 -1.148438 2.859375 -0.890625 C 2.753906 -0.640625 2.664062 -0.265625 2.59375 0.234375 L 1.796875 0.234375 C 1.847656 -0.335938 1.878906 -1.007812 1.890625 -1.78125 C 1.898438 -2.550781 1.910156 -3.546875 1.921875 -4.765625 C 1.929688 -5.992188 1.9375 -7.550781 1.9375 -9.4375 L 2.734375 -9.4375 C 2.828125 -7.875 3.085938 -6.410156 3.515625 -5.046875 C 3.941406 -3.691406 4.597656 -2.59375 5.484375 -1.75 C 6.367188 -0.90625 7.550781 -0.484375 9.03125 -0.484375 C 9.863281 -0.484375 10.585938 -0.617188 11.203125 -0.890625 C 11.828125 -1.171875 12.320312 -1.582031 12.6875 -2.125 C 13.0625 -2.664062 13.25 -3.328125 13.25 -4.109375 C 13.25 -5.078125 13.03125 -5.921875 12.59375 -6.640625 C 12.15625 -7.359375 11.554688 -8.03125 10.796875 -8.65625 C 10.035156 -9.289062 9.144531 -9.929688 8.125 -10.578125 C 7.039062 -11.296875 6.023438 -12.023438 5.078125 -12.765625 C 4.140625 -13.503906 3.382812 -14.328125 2.8125 -15.234375 C 2.25 -16.148438 1.96875 -17.253906 1.96875 -18.546875 C 1.96875 -20.015625 2.347656 -21.222656 3.109375 -22.171875 C 3.867188 -23.117188 4.878906 -23.816406 6.140625 -24.265625 C 7.398438 -24.710938 8.734375 -24.9375 10.140625 -24.9375 Z M 10.140625 -24.9375 "/></g></g></g><g fill="#ffffff" fill-opacity="1"><g transform="translate(180.126586, 33.611424)"><g><path d="M 22.796875 -24.5 C 22.703125 -23.226562 22.640625 -22.003906 22.609375 -20.828125 C 22.578125 -19.648438 22.5625 -18.75 22.5625 -18.125 C 22.5625 -17.613281 22.570312 -17.140625 22.59375 -16.703125 C 22.613281 -16.265625 22.632812 -15.882812 22.65625 -15.5625 L 21.859375 -15.5625 C 21.398438 -17.613281 20.847656 -19.234375 20.203125 -20.421875 C 19.554688 -21.609375 18.820312 -22.453125 18 -22.953125 C 17.1875 -23.453125 16.304688 -23.703125 15.359375 -23.703125 L 14.9375 -23.703125 L 14.9375 -3.9375 C 14.9375 -3 15.035156 -2.296875 15.234375 -1.828125 C 15.429688 -1.367188 15.800781 -1.0625 16.34375 -0.90625 C 16.882812 -0.757812 17.675781 -0.6875 18.71875 -0.6875 L 18.71875 0 C 17.957031 -0.0195312 16.9375 -0.0390625 15.65625 -0.0625 C 14.375 -0.09375 13.039062 -0.109375 11.65625 -0.109375 C 10.289062 -0.109375 9.007812 -0.09375 7.8125 -0.0625 C 6.613281 -0.0390625 5.644531 -0.0195312 4.90625 0 L 4.90625 -0.6875 C 5.945312 -0.6875 6.742188 -0.757812 7.296875 -0.90625 C 7.847656 -1.0625 8.21875 -1.367188 8.40625 -1.828125 C 8.59375 -2.296875 8.6875 -3 8.6875 -3.9375 L 8.6875 -23.703125 L 8.296875 -23.703125 C 7.328125 -23.703125 6.4375 -23.453125 5.625 -22.953125 C 4.820312 -22.453125 4.097656 -21.613281 3.453125 -20.4375 C 2.804688 -19.269531 2.242188 -17.644531 1.765625 -15.5625 L 0.96875 -15.5625 C 1.007812 -15.882812 1.035156 -16.265625 1.046875 -16.703125 C 1.066406 -17.140625 1.078125 -17.613281 1.078125 -18.125 C 1.078125 -18.75 1.054688 -19.648438 1.015625 -20.828125 C 0.984375 -22.003906 0.921875 -23.226562 0.828125 -24.5 C 1.910156 -24.46875 3.101562 -24.441406 4.40625 -24.421875 C 5.707031 -24.398438 7.003906 -24.390625 8.296875 -24.390625 C 9.585938 -24.390625 10.765625 -24.390625 11.828125 -24.390625 C 12.890625 -24.390625 14.070312 -24.390625 15.375 -24.390625 C 16.675781 -24.390625 17.972656 -24.398438 19.265625 -24.421875 C 20.554688 -24.441406 21.734375 -24.46875 22.796875 -24.5 Z M 22.796875 -24.5 "/></g></g></g><g fill="#ffffff" fill-opacity="1"><g transform="translate(217.593051, 33.611424)"><g><path d="M 1.078125 -24.5 C 1.691406 -24.46875 2.519531 -24.441406 3.5625 -24.421875 C 4.601562 -24.398438 5.640625 -24.390625 6.671875 -24.390625 C 7.804688 -24.390625 8.894531 -24.398438 9.9375 -24.421875 C 10.988281 -24.441406 11.734375 -24.453125 12.171875 -24.453125 C 14.429688 -24.453125 16.289062 -24.222656 17.75 -23.765625 C 19.21875 -23.304688 20.320312 -22.628906 21.0625 -21.734375 C 21.800781 -20.847656 22.171875 -19.75 22.171875 -18.4375 C 22.171875 -17.601562 22.003906 -16.789062 21.671875 -16 C 21.335938 -15.207031 20.769531 -14.472656 19.96875 -13.796875 C 19.175781 -13.128906 18.082031 -12.597656 16.6875 -12.203125 C 15.289062 -11.816406 13.535156 -11.625 11.421875 -11.625 L 8.09375 -11.625 L 8.09375 -12.3125 L 11.0625 -12.3125 C 12.332031 -12.3125 13.296875 -12.570312 13.953125 -13.09375 C 14.609375 -13.613281 15.054688 -14.304688 15.296875 -15.171875 C 15.546875 -16.035156 15.671875 -17 15.671875 -18.0625 C 15.671875 -19.882812 15.378906 -21.296875 14.796875 -22.296875 C 14.222656 -23.296875 13.242188 -23.796875 11.859375 -23.796875 C 11.003906 -23.796875 10.457031 -23.597656 10.21875 -23.203125 C 9.976562 -22.816406 9.859375 -22.023438 9.859375 -20.828125 L 9.859375 -3.671875 C 9.859375 -2.835938 9.921875 -2.210938 10.046875 -1.796875 C 10.171875 -1.378906 10.410156 -1.101562 10.765625 -0.96875 C 11.128906 -0.832031 11.671875 -0.738281 12.390625 -0.6875 L 12.390625 0 C 11.742188 -0.0390625 10.914062 -0.0664062 9.90625 -0.078125 C 8.90625 -0.0976562 7.898438 -0.109375 6.890625 -0.109375 C 5.710938 -0.109375 4.601562 -0.0976562 3.5625 -0.078125 C 2.519531 -0.0664062 1.691406 -0.0390625 1.078125 0 L 1.078125 -0.6875 C 1.785156 -0.738281 2.316406 -0.832031 2.671875 -0.96875 C 3.035156 -1.101562 3.28125 -1.378906 3.40625 -1.796875 C 3.53125 -2.210938 3.59375 -2.835938 3.59375 -3.671875 L 3.59375 -20.828125 C 3.59375 -21.679688 3.53125 -22.304688 3.40625 -22.703125 C 3.28125 -23.109375 3.035156 -23.382812 2.671875 -23.53125 C 2.316406 -23.6875 1.785156 -23.773438 1.078125 -23.796875 Z M 7.953125 -12.21875 C 8.859375 -12.1875 9.675781 -12.132812 10.40625 -12.0625 C 11.144531 -12 11.804688 -11.9375 12.390625 -11.875 C 12.984375 -11.820312 13.5 -11.785156 13.9375 -11.765625 C 16.21875 -11.617188 17.914062 -11.179688 19.03125 -10.453125 C 20.15625 -9.734375 20.867188 -8.660156 21.171875 -7.234375 L 21.890625 -3.625 C 22.097656 -2.75 22.316406 -2.132812 22.546875 -1.78125 C 22.785156 -1.425781 23.113281 -1.257812 23.53125 -1.28125 C 23.78125 -1.28125 23.992188 -1.332031 24.171875 -1.4375 C 24.359375 -1.539062 24.546875 -1.695312 24.734375 -1.90625 L 25.21875 -1.453125 C 24.550781 -0.734375 23.820312 -0.234375 23.03125 0.046875 C 22.25 0.335938 21.34375 0.484375 20.3125 0.484375 C 18.945312 0.484375 17.832031 0.21875 16.96875 -0.3125 C 16.101562 -0.84375 15.554688 -1.820312 15.328125 -3.25 L 14.734375 -6.71875 C 14.597656 -7.65625 14.421875 -8.492188 14.203125 -9.234375 C 13.984375 -9.972656 13.6875 -10.554688 13.3125 -10.984375 C 12.945312 -11.410156 12.429688 -11.625 11.765625 -11.625 L 8.03125 -11.625 Z M 7.953125 -12.21875 "/></g></g></g><g fill="#ffffff" fill-opacity="1"><g transform="translate(255.855135, 33.611424)"><g><path d="M 13.25 -24.53125 L 21.625 -2.90625 C 21.96875 -2.09375 22.328125 -1.523438 22.703125 -1.203125 C 23.085938 -0.878906 23.429688 -0.707031 23.734375 -0.6875 L 23.734375 0 C 22.992188 -0.0390625 22.109375 -0.0664062 21.078125 -0.078125 C 20.054688 -0.0976562 19.015625 -0.109375 17.953125 -0.109375 C 16.847656 -0.109375 15.796875 -0.0976562 14.796875 -0.078125 C 13.804688 -0.0664062 13.015625 -0.0390625 12.421875 0 L 12.421875 -0.6875 C 13.597656 -0.738281 14.347656 -0.941406 14.671875 -1.296875 C 14.992188 -1.648438 14.921875 -2.414062 14.453125 -3.59375 L 8.71875 -19.296875 L 9.40625 -20.34375 L 4.359375 -7.296875 C 3.828125 -5.910156 3.503906 -4.789062 3.390625 -3.9375 C 3.273438 -3.082031 3.332031 -2.425781 3.5625 -1.96875 C 3.789062 -1.507812 4.148438 -1.1875 4.640625 -1 C 5.140625 -0.8125 5.738281 -0.707031 6.4375 -0.6875 L 6.4375 0 C 5.625 -0.0390625 4.878906 -0.0664062 4.203125 -0.078125 C 3.523438 -0.0976562 2.789062 -0.109375 2 -0.109375 C 1.539062 -0.109375 1.070312 -0.0976562 0.59375 -0.078125 C 0.125 -0.0664062 -0.28125 -0.0390625 -0.625 0 L -0.625 -0.6875 C -0.113281 -0.78125 0.394531 -1.101562 0.90625 -1.65625 C 1.425781 -2.207031 1.941406 -3.164062 2.453125 -4.53125 L 10.234375 -24.53125 C 10.703125 -24.476562 11.207031 -24.453125 11.75 -24.453125 C 12.289062 -24.453125 12.789062 -24.476562 13.25 -24.53125 Z M 15.046875 -9.96875 L 15.046875 -9.265625 L 4.734375 -9.265625 L 5.078125 -9.96875 Z M 15.046875 -9.96875 "/></g></g></g></g></g></g></g></g></g></svg>